<?xml version="1.0" encoding="UTF-8"?>
<svg version="1.1" xmlns="http://www.w3.org/2000/svg" width="671" height="671">
<path d="M0 0 C1.64874367 -0.00855011 1.64874367 -0.00855011 3.33079529 -0.01727295 C5.65110328 -0.0266667 7.97142428 -0.03323436 10.29174805 -0.03710938 C13.74748847 -0.04670532 17.20260451 -0.07773802 20.65820312 -0.109375 C41.36716528 -0.20889067 61.80758158 1.56793058 82.05859375 6.015625 C83.26596191 6.27424316 84.47333008 6.53286133 85.71728516 6.79931641 C96.37664398 9.13365802 106.85195468 11.88542765 117.24609375 15.203125 C118.14956543 15.48881348 119.05303711 15.77450195 119.98388672 16.06884766 C135.28435408 20.97124771 149.82066085 27.14630651 164.24609375 34.203125 C165.16165039 34.65059082 166.07720703 35.09805664 167.02050781 35.55908203 C190.1977108 47.01366284 211.4940886 61.55817684 231.24609375 78.203125 C232.2978918 79.06805537 233.34998887 79.9326222 234.40234375 80.796875 C247.34224496 91.53496056 259.84419617 103.31204869 270.1953125 116.59765625 C272.09462343 119.01068556 274.08464003 121.31647376 276.11352539 123.62060547 C321.64167472 175.73317194 350.16165449 251.87380598 350.44921875 320.95703125 C350.45491882 322.0561937 350.4606189 323.15535614 350.4664917 324.28782654 C350.47588545 326.60813453 350.48245311 328.92845553 350.48632812 331.2487793 C350.49592407 334.70451972 350.52695677 338.15963576 350.55859375 341.61523438 C350.65810942 362.32419653 348.88128817 382.76461283 344.43359375 403.015625 C344.17497559 404.22299316 343.91635742 405.43036133 343.64990234 406.67431641 C341.31556073 417.33367523 338.5637911 427.80898593 335.24609375 438.203125 C334.96040527 439.10659668 334.6747168 440.01006836 334.38037109 440.94091797 C329.47797104 456.24138533 323.30291224 470.7776921 316.24609375 485.203125 C315.79862793 486.11868164 315.35116211 487.03423828 314.89013672 487.97753906 C303.43555591 511.15474205 288.89104191 532.45111985 272.24609375 552.203125 C271.38116338 553.25492305 270.51659655 554.30702012 269.65234375 555.359375 C258.91425819 568.29927621 247.13717006 580.80122742 233.8515625 591.15234375 C231.43853319 593.05165468 229.13274499 595.04167128 226.82861328 597.07055664 C174.71604681 642.59870597 98.57541277 671.11868574 29.4921875 671.40625 C28.39302505 671.41195007 27.29386261 671.41765015 26.16139221 671.42352295 C23.84108422 671.4329167 21.52076322 671.43948436 19.20043945 671.44335938 C15.74469903 671.45295532 12.28958299 671.48398802 8.83398438 671.515625 C-11.87497778 671.61514067 -32.31539408 669.83831942 -52.56640625 665.390625 C-53.77377441 665.13200684 -54.98114258 664.87338867 -56.22509766 664.60693359 C-66.88445648 662.27259198 -77.35976718 659.52082235 -87.75390625 656.203125 C-88.65737793 655.91743652 -89.56084961 655.63174805 -90.49169922 655.33740234 C-105.79216658 650.43500229 -120.32847335 644.25994349 -134.75390625 637.203125 C-135.66946289 636.75565918 -136.58501953 636.30819336 -137.52832031 635.84716797 C-160.7055233 624.39258716 -182.0019011 609.84807316 -201.75390625 593.203125 C-202.8057043 592.33819463 -203.85780137 591.4736278 -204.91015625 590.609375 C-217.85005746 579.87128944 -230.35200867 568.09420131 -240.703125 554.80859375 C-242.60243593 552.39556444 -244.59245253 550.08977624 -246.62133789 547.78564453 C-292.14948722 495.67307806 -320.66946699 419.53244402 -320.95703125 350.44921875 C-320.96558136 348.80047508 -320.96558136 348.80047508 -320.9743042 347.11842346 C-320.98369795 344.79811547 -320.99026561 342.47779447 -320.99414062 340.1574707 C-321.00373657 336.70173028 -321.03476927 333.24661424 -321.06640625 329.79101562 C-321.16592192 309.08205347 -319.38910067 288.64163717 -314.94140625 268.390625 C-314.68278809 267.18325684 -314.42416992 265.97588867 -314.15771484 264.73193359 C-311.82337323 254.07257477 -309.0716036 243.59726407 -305.75390625 233.203125 C-305.46821777 232.29965332 -305.1825293 231.39618164 -304.88818359 230.46533203 C-299.98578354 215.16486467 -293.81072474 200.6285579 -286.75390625 186.203125 C-286.08270752 184.82979004 -286.08270752 184.82979004 -285.39794922 183.42871094 C-273.94336841 160.25150795 -259.39885441 138.95513015 -242.75390625 119.203125 C-241.88897588 118.15132695 -241.02440905 117.09922988 -240.16015625 116.046875 C-229.42207069 103.10697379 -217.64498256 90.60502258 -204.359375 80.25390625 C-201.94634569 78.35459532 -199.64055749 76.36457872 -197.33642578 74.33569336 C-145.22385931 28.80754403 -69.08322527 0.28756426 0 0 Z " fill="#FDFEFD" transform="translate(320.75390625,-0.203125)"/>
<path d="M0 0 C2.78542986 0.46912503 5.5756503 0.88527947 8.37011719 1.296875 C32.74635587 5.03226093 55.09332222 12.73940196 77.69042969 22.453125 C79.29422403 23.13369057 80.89834621 23.81348459 82.50292969 24.4921875 C85.5731422 25.79506963 88.63545539 27.11480909 91.69042969 28.453125 C91.88076782 27.37285034 91.88076782 27.37285034 92.07495117 26.27075195 C92.68078052 23.49729836 93.51557622 21.01663477 94.53808594 18.37109375 C94.89580078 17.43974609 95.25351562 16.50839844 95.62207031 15.54882812 C96.1818457 14.10926758 96.1818457 14.10926758 96.75292969 12.640625 C97.12998047 11.66158203 97.50703125 10.68253906 97.89550781 9.67382812 C98.82358564 7.2655249 99.75533085 4.85870886 100.69042969 2.453125 C101.68042969 2.453125 102.67042969 2.453125 103.69042969 2.453125 C105.5910282 4.91272308 107.27155285 7.34045627 108.94042969 9.953125 C109.4620166 10.75339111 109.98360352 11.55365723 110.52099609 12.37817383 C112.25963518 15.06021494 113.97780599 17.75440249 115.69042969 20.453125 C116.28500977 21.38946777 116.87958984 22.32581055 117.4921875 23.29052734 C125.66799395 36.20830154 133.64853255 49.24502797 141.56933594 62.3203125 C143.4746481 65.46289289 145.39378709 68.59525691 147.34277344 71.7109375 C147.72570557 72.32428955 148.1086377 72.9376416 148.50317383 73.56958008 C149.47602831 75.12288278 150.45406316 76.67293784 151.43261719 78.22265625 C152.69042969 80.453125 152.69042969 80.453125 152.69042969 82.453125 C122.33042969 82.453125 91.97042969 82.453125 60.69042969 82.453125 C62.25696951 78.53677545 63.64103631 75.78995337 65.94824219 72.37109375 C66.88603516 70.97407227 66.88603516 70.97407227 67.84277344 69.54882812 C68.49375 68.58912109 69.14472656 67.62941406 69.81542969 66.640625 C70.47414063 65.66158203 71.13285156 64.68253906 71.81152344 63.67382812 C73.43368758 61.26409153 75.06009815 58.85734006 76.69042969 56.453125 C58.54343431 46.71354673 39.73608798 40.96719601 19.69042969 36.453125 C18.94696289 36.28296875 18.20349609 36.1128125 17.4375 35.9375 C-12.01395925 29.33262949 -43.66144945 29.53496199 -73.30957031 34.453125 C-74.15068359 34.58702637 -74.99179687 34.72092773 -75.85839844 34.85888672 C-98.25378949 38.51609131 -119.80487228 45.83605404 -140.30957031 55.453125 C-141.14681641 55.84226074 -141.9840625 56.23139648 -142.84667969 56.63232422 C-160.39323568 64.86275142 -176.77743459 74.73425474 -191.70507812 87.125 C-193.26591016 88.41698513 -194.84612093 89.6854463 -196.42675781 90.953125 C-210.42285551 102.30580712 -223.40005395 115.20529569 -234.05615234 129.75537109 C-235.33254611 131.4842457 -236.64298589 133.18231777 -237.96191406 134.87890625 C-255.98248763 158.3429582 -267.91422413 184.57604392 -277.30957031 212.453125 C-277.73109375 213.6803125 -278.15261719 214.9075 -278.58691406 216.171875 C-285.3346865 237.63466927 -287.53344522 260.44170359 -287.49707031 282.828125 C-287.49566544 283.94945831 -287.49566544 283.94945831 -287.49423218 285.09344482 C-287.32708297 346.90242218 -265.12585801 408.69200057 -222.48925781 454.12109375 C-220.60211755 456.14013092 -218.8265953 458.20505767 -217.05957031 460.328125 C-206.91492143 471.9118985 -194.74030513 481.46356701 -182.30957031 490.453125 C-181.69533203 490.8975293 -181.08109375 491.34193359 -180.44824219 491.79980469 C-159.73581585 506.58952295 -135.67373044 519.00173419 -111.30957031 526.453125 C-110.44783203 526.71834961 -109.58609375 526.98357422 -108.69824219 527.25683594 C-71.08166267 538.6025225 -31.31229651 542.40243747 7.69042969 536.453125 C8.57956055 536.31841797 9.46869141 536.18371094 10.38476562 536.04492188 C76.64873613 525.35942297 136.63108679 486.79992771 176.69042969 433.453125 C177.31014648 432.64270752 177.31014648 432.64270752 177.94238281 431.81591797 C197.12647006 406.65010462 210.67260967 376.9806012 218.69042969 346.453125 C219.02042969 346.453125 219.35042969 346.453125 219.69042969 346.453125 C217.62845717 374.80524708 204.83005769 402.67356866 191.69042969 427.453125 C191.34012695 428.11650879 190.98982422 428.77989258 190.62890625 429.46337891 C183.33303716 443.16034069 174.62070383 455.52250786 164.69042969 467.453125 C164.26568359 467.96810547 163.8409375 468.48308594 163.40332031 469.01367188 C153.36730556 481.14465163 142.6895846 492.63371507 130.29589844 502.3984375 C128.60350546 503.73306824 126.93713385 505.10162518 125.30371094 506.5078125 C94.00144177 533.33832893 52.96952696 552.40029361 12.69042969 560.453125 C11.78550781 560.63713867 10.88058594 560.82115234 9.94824219 561.01074219 C7.15691653 561.57076656 4.36265937 562.11091788 1.56542969 562.640625 C0.75638184 562.79571533 -0.05266602 562.95080566 -0.88623047 563.1105957 C-16.77040204 565.9642725 -32.69685823 566.86306863 -48.80957031 566.828125 C-49.72066559 566.82791351 -50.63176086 566.82770203 -51.57046509 566.82748413 C-67.15840778 566.79159739 -81.99601342 565.51226441 -97.30957031 562.453125 C-99.20781421 562.10960555 -101.10624948 561.76714175 -103.00488281 561.42578125 C-162.62716255 550.13148789 -221.09721476 515.90468466 -260.30957031 469.453125 C-261.02113281 468.6178125 -261.73269531 467.7825 -262.46582031 466.921875 C-284.39298392 440.67104533 -300.79655267 411.39701741 -312.32714844 379.18945312 C-313.13531846 376.93846663 -313.97020039 374.7021578 -314.82519531 372.46875 C-319.41039267 359.87396739 -321.81523439 346.588099 -324.30957031 333.453125 C-324.52564941 332.32181152 -324.74172852 331.19049805 -324.96435547 330.02490234 C-330.28258895 301.11888828 -330.4663097 269.44383457 -325.62207031 240.390625 C-325.44764404 239.33609131 -325.27321777 238.28155762 -325.09350586 237.19506836 C-312.94667407 166.68047985 -274.47358097 100.95217201 -217.06445312 57.77539062 C-215.30028734 56.44613048 -213.55112458 55.09865214 -211.80175781 53.75 C-201.80852204 46.13863522 -191.22388231 39.65434521 -180.30957031 33.453125 C-179.4874707 32.98374512 -178.66537109 32.51436523 -177.81835938 32.03076172 C-149.13996169 15.84317267 -117.75079812 5.67855767 -85.30957031 0.453125 C-84.45298828 0.30359375 -83.59640625 0.1540625 -82.71386719 0 C-55.94785481 -4.59638407 -26.76923291 -4.53153012 0 0 Z " fill="#86BE3D" transform="translate(379.3095703125,58.546875)"/>
<path d="M0 0 C7.92 0 15.84 0 24 0 C26.88270306 7.28683275 29.47881924 14.47174184 31.75537109 21.96606445 C34.14645235 29.77438081 36.70314497 37.53164104 39.22827148 45.29736328 C40.19872203 48.28454294 41.16479088 51.27311946 42.13085938 54.26171875 C42.7471279 56.15894122 43.36365458 58.05607986 43.98046875 59.953125 C44.41325386 61.29506927 44.41325386 61.29506927 44.8547821 62.66412354 C45.12208633 63.48298035 45.38939056 64.30183716 45.66479492 65.14550781 C46.01642952 66.22919647 46.01642952 66.22919647 46.37516785 67.33477783 C46.87319526 69.01106985 46.87319526 69.01106985 48 70 C48.2121817 69.38629044 48.4243634 68.77258087 48.64297485 68.14027405 C50.88161246 61.66563786 53.12101793 55.1912676 55.36083984 48.71704102 C56.1930621 46.3111826 57.02509826 43.9052598 57.85693359 41.49926758 C60.56584626 33.6642837 63.28041471 25.83128538 66 18 C66.32303101 17.0679071 66.64606201 16.13581421 66.97888184 15.17547607 C67.82397482 12.73958984 68.67288459 10.30507786 69.5234375 7.87109375 C69.76518707 7.17266861 70.00693665 6.47424347 70.25601196 5.75465393 C71.88484279 1.11515721 71.88484279 1.11515721 73 0 C74.63472882 -0.08700342 76.27314055 -0.10701063 77.91015625 -0.09765625 C78.89951172 -0.09443359 79.88886719 -0.09121094 80.90820312 -0.08789062 C81.94912109 -0.07951172 82.99003906 -0.07113281 84.0625 -0.0625 C85.62967773 -0.05573242 85.62967773 -0.05573242 87.22851562 -0.04882812 C89.8190666 -0.03699913 92.40950559 -0.02051689 95 0 C97.70460114 6.37307609 99.91654136 12.79258688 101.90625 19.42138672 C103.97134044 26.17810451 106.25377318 32.86428521 108.5 39.5625 C108.97800839 40.99148836 109.45587348 42.42052467 109.93359375 43.84960938 C110.16780029 44.54976166 110.40200684 45.24991394 110.64331055 45.97128296 C111.10626366 47.35604768 111.56867569 48.74099342 112.03051758 50.12612915 C113.08205415 53.27630181 114.14584785 56.42040873 115.234375 59.55810547 C115.60046875 60.6204541 115.9665625 61.68280273 116.34375 62.77734375 C116.82618164 64.15587524 116.82618164 64.15587524 117.31835938 65.56225586 C118 68 118 68 118 72 C118.66 72 119.32 72 120 72 C120.25740967 70.73881348 120.51481934 69.47762695 120.7800293 68.17822266 C121.99908594 62.70577566 123.72226274 57.4543449 125.51953125 52.1484375 C125.85997971 51.13133698 126.20042816 50.11423645 126.55119324 49.0663147 C127.63404221 45.8344308 128.7231263 42.60468969 129.8125 39.375 C130.53232138 37.2306098 131.25172597 35.08607965 131.97070312 32.94140625 C133.35146452 28.82444731 134.73446081 24.70825175 136.11962891 20.59277344 C138.42755725 13.73330413 140.71539825 6.86727048 143 0 C150.59 0 158.18 0 166 0 C164.74008103 5.66963535 163.53902007 10.74844415 161.70703125 16.171875 C161.48415939 16.83620041 161.26128754 17.50052582 161.03166199 18.1849823 C160.29605958 20.3747319 159.5541969 22.56230803 158.8125 24.75 C158.28789663 26.30915304 157.76382133 27.86848385 157.24023438 29.42797852 C156.10818091 32.7984939 154.97398484 36.16827758 153.83837891 39.53759766 C150.87217785 48.34420079 147.93019389 57.15890247 144.98934937 65.97399902 C144.02028017 68.8767527 143.04896871 71.77874868 142.07739258 74.68066406 C138.93288613 84.08794599 135.86286066 93.50245975 133 103 C124.09 103 115.18 103 106 103 C102.36050323 92.7951365 98.80588668 82.65376591 95.84716797 72.23339844 C94.18881615 66.46510029 92.21643237 60.83933931 90.17089844 55.19848633 C88.08384256 49.38833501 86.36675852 43.52214135 84.76171875 37.5625 C84.2478938 35.08912166 84.2478938 35.08912166 83 34 C82.62302979 35.16644043 82.24605957 36.33288086 81.85766602 37.53466797 C74.77637156 59.43177747 67.6322088 81.28768186 60 103 C50.76 103 41.52 103 32 103 C27.53351699 90.71717172 27.53351699 90.71717172 26.015625 85.1484375 C24.08896629 78.25114955 21.95795616 71.43681079 19.75 64.625 C19.36303955 63.42472168 18.9760791 62.22444336 18.57739258 60.98779297 C15.99966052 53.01567479 13.35731391 45.06666709 10.6875 37.125 C6.5749974 24.87020063 3.06390506 12.56201076 0 0 Z " fill="#24305F" transform="translate(141,230)"/>
<path d="M0 0 C1.55074219 -0.02416992 1.55074219 -0.02416992 3.1328125 -0.04882812 C16.84822703 -0.05746504 29.29760392 4.86908233 39.40625 14.2734375 C48.1552063 23.94919002 53.01342758 35.19173918 52.75 48.1875 C52.73718994 49.15204102 52.72437988 50.11658203 52.71118164 51.11035156 C52.30873662 65.28310373 47.25070345 75.87665398 36.9375 85.625 C26.43546151 94.45383236 14.27051094 97.84953009 0.75 97.6875 C-0.21808594 97.69910156 -1.18617188 97.71070313 -2.18359375 97.72265625 C-16.32880352 97.66569567 -27.26441456 92.29542395 -37.45703125 82.6875 C-47.82715016 71.94638877 -50.38479866 59.46060781 -50.21826172 44.91552734 C-49.74478161 31.22426738 -43.93569091 20.91820701 -34 11.5 C-29.12845327 7.49493392 -23.51689264 4.79610843 -17.75 2.3125 C-16.44675781 1.74402344 -16.44675781 1.74402344 -15.1171875 1.1640625 C-10.08480331 -0.10862863 -5.17023869 -0.01587911 0 0 Z " fill="#23305F" transform="translate(364.75,382.6875)"/>
<path d="M0 0 C7.6725 -0.061875 15.345 -0.12375 23.25 -0.1875 C25.64668945 -0.21481201 28.04337891 -0.24212402 30.51269531 -0.27026367 C32.45116678 -0.2790404 34.38964386 -0.28668151 36.328125 -0.29296875 C37.79064697 -0.3159906 37.79064697 -0.3159906 39.28271484 -0.33947754 C50.66710175 -0.34371911 63.23615691 2.06703207 72.03515625 9.78515625 C73.88795167 11.76383161 75.46044988 13.77030672 77 16 C77.43441406 16.62132812 77.86882812 17.24265625 78.31640625 17.8828125 C82.79618638 25.8433974 82.33298434 37.1790388 80.33984375 45.8828125 C77.28143411 53.48249706 71.1623376 60.1323377 64 64 C56.91520833 66.83903204 50.15874014 68.13408924 42.5078125 68.09765625 C41.4264502 68.09515869 40.34508789 68.09266113 39.23095703 68.09008789 C37.1985083 68.07643188 37.1985083 68.07643188 35.125 68.0625 C30.79375 68.041875 26.4625 68.02125 22 68 C22 76.91 22 85.82 22 95 C14.74 95 7.48 95 0 95 C0 63.65 0 32.3 0 0 Z " fill="#24305F" transform="translate(223,384)"/>
<path d="M0 0 C7.59 0 15.18 0 23 0 C23.33 12.87 23.66 25.74 24 39 C26.64 36.69 29.28 34.38 32 32 C37.74903155 29.21379938 42.59510685 28.47664582 48.9375 28.5625 C50.12545166 28.57494751 50.12545166 28.57494751 51.33740234 28.58764648 C60.5307757 28.85380535 66.50381811 31.81581811 73.2109375 38.08203125 C81.73354596 47.21871412 82.29995476 57.03240743 82.1953125 69.03125 C82.1924826 70.26290894 82.18965271 71.49456787 82.18673706 72.7635498 C82.17559202 76.67580102 82.15049749 80.58781862 82.125 84.5 C82.11382966 87.16145498 82.10583833 89.82290777 82.09765625 92.484375 C82.0756712 98.98967258 82.04118019 105.49479675 82 112 C74.41 112 66.82 112 59 112 C58.96261719 108.30425781 58.92523438 104.60851562 58.88671875 100.80078125 C58.8405021 97.21974787 58.78926879 93.63881895 58.73754883 90.05786133 C58.70430343 87.56997022 58.67627034 85.08200376 58.65356445 82.59399414 C58.6200123 79.01676332 58.56769408 75.44022281 58.51171875 71.86328125 C58.50532883 70.75165115 58.4989389 69.64002106 58.49235535 68.4947052 C58.47256119 67.45400375 58.45276703 66.41330231 58.43237305 65.34106445 C58.41571846 63.97205742 58.41571846 63.97205742 58.39872742 62.57539368 C57.92234479 59.49842241 56.66986707 57.59744222 55 55 C55 54.34 55 53.68 55 53 C54.21625 52.690625 53.4325 52.38125 52.625 52.0625 C50 51 50 51 48 50 C42.44468752 49.4927035 37.58169764 49.23739578 32.5 51.6875 C27.9127611 55.93069598 24.45463695 60.04331333 23.7215271 66.42353821 C23.70820343 67.26514999 23.69487976 68.10676178 23.68115234 68.97387695 C23.66128265 69.93449539 23.64141296 70.89511383 23.62094116 71.88484192 C23.60361435 73.42104439 23.60361435 73.42104439 23.5859375 74.98828125 C23.56657135 76.04661667 23.5472052 77.10495209 23.5272522 78.19535828 C23.46758752 81.56765748 23.42112307 84.93999106 23.375 88.3125 C23.33680819 90.60222823 23.29775576 92.89194228 23.2578125 95.18164062 C23.16028073 100.78768563 23.08060681 106.39358392 23 112 C15.41 112 7.82 112 0 112 C0 75.04 0 38.08 0 0 Z " fill="#24305F" transform="translate(320,221)"/>
<path d="M0 0 C1.08539063 -0.00257813 2.17078125 -0.00515625 3.2890625 -0.0078125 C14.30312824 0.12362027 24.15328915 2.60151 34 7.5 C32.33846988 13.35659906 30.52958084 18.9590134 28 24.5 C26.14375 23.8503125 26.14375 23.8503125 24.25 23.1875 C6.86544279 17.34174215 6.86544279 17.34174215 -10.6875 20.3125 C-14.13446014 22.28066075 -14.13446014 22.28066075 -16 25.5 C-16.02639829 27.79714187 -16.02639829 27.79714187 -15.625 30.1875 C-15.51414062 30.99574219 -15.40328125 31.80398438 -15.2890625 32.63671875 C-15.19367188 33.25160156 -15.09828125 33.86648438 -15 34.5 C-8.556176 37.20224877 -2.06405037 39.2770741 4.73730469 40.8828125 C27.26420131 46.22566233 27.26420131 46.22566233 34 54.5 C36.82416277 59.10258602 37.51729529 63.06264454 37.4375 68.375 C37.42920166 69.08390381 37.42090332 69.79280762 37.41235352 70.52319336 C37.23179089 76.10649818 36.45459323 80.10699488 33 84.5 C32.53722656 85.11101562 32.07445312 85.72203125 31.59765625 86.3515625 C24.97295344 93.96430167 13.37115381 98.01755183 3.4921875 98.765625 C-11.81809476 98.69948987 -27.45140022 97.1803484 -40 87.5 C-38.33846988 81.64340094 -36.52958084 76.0409866 -34 70.5 C-29.74658118 72.13186228 -25.8049432 74.13454915 -21.79296875 76.28125 C-15.18910748 79.16293492 -8.98524564 79.84247574 -1.875 79.8125 C-0.71677734 79.83666992 -0.71677734 79.83666992 0.46484375 79.86132812 C5.3706667 79.86550685 8.7707371 79.24452167 13 76.5 C15.31779699 73.62422973 15.31779699 73.62422973 15 70.0625 C14.31015581 66.3203459 14.31015581 66.3203459 11.25 64.1875 C6.08695762 61.50668953 1.02331522 59.94698895 -4.625 58.625 C-28.09451668 52.88664033 -28.09451668 52.88664033 -34.41015625 44.6640625 C-38.91008623 37.01902017 -39.41851135 27.59576498 -37.421875 19.015625 C-33.5033659 10.10992251 -24.9738398 4.98593838 -16.30859375 1.5144043 C-10.85496739 -0.15766016 -5.66156663 -0.14792692 0 0 Z " fill="#25315F" transform="translate(468,382.5)"/>
<path d="M0 0 C23.43 0 46.86 0 71 0 C71 5.28 71 10.56 71 16 C69.02 17.65 67.04 19.3 65 21 C63.25923417 22.95560562 63.25923417 22.95560562 61.8125 25 C58.8551193 28.93226946 55.75730477 32.69877099 52.5625 36.4375 C47.92925602 41.87416485 43.43637336 47.39998772 39 53 C36.36 56.3 33.72 59.6 31 63 C44.86 63.33 58.72 63.66 73 64 C73 69.94 73 75.88 73 82 C48.91 82 24.82 82 0 82 C0 67 0 67 2.01953125 63.1484375 C2.94121094 62.23320312 3.86289062 61.31796875 4.8125 60.375 C5.82779057 59.31342462 6.84208497 58.25089576 7.85546875 57.1875 C8.63929932 56.40246094 8.63929932 56.40246094 9.43896484 55.6015625 C11.98656746 52.98781943 14.29287114 50.18010416 16.625 47.375 C17.53982159 46.29250963 18.45517914 45.21047196 19.37109375 44.12890625 C26.05261335 36.19658663 32.52108088 28.0986489 39 20 C19.695 19.505 19.695 19.505 0 19 C0 12.73 0 6.46 0 0 Z " fill="#273361" transform="translate(464,251)"/>
<path d="M0 0 C8.31919951 -0.50339105 15.62468912 2.03058448 22.2890625 7.0234375 C28.96835449 13.23095793 31.93271358 19.17755652 32.46069336 28.31542969 C32.70046651 38.02144694 30.57206087 45.48539862 24.3203125 53.15234375 C18.64275452 58.67904874 10.58515381 61.38435929 2.765625 61.6640625 C-5.79358764 61.2442277 -12.94657965 58.21443135 -19.109375 52.2265625 C-25.78861968 43.73341127 -27.04185744 34.66269374 -26.34765625 24.14306641 C-25.37022486 16.2815537 -20.09830929 10.03818492 -14.109375 5.2265625 C-9.54090448 2.02472846 -5.4919329 0.58987427 0 0 Z " fill="#FCFCFC" transform="translate(363.109375,400.7734375)"/>
<path d="M0 0 C7.59 0 15.18 0 23 0 C23 27.06 23 54.12 23 82 C15.41 82 7.82 82 0 82 C0 54.94 0 27.88 0 0 Z " fill="#24305E" transform="translate(424,251)"/>
<path d="M0 0 C4.60631101 2.72191105 7.8097521 7.25551171 9.890625 12.1171875 C10.55530241 18.65318207 9.29830222 23.48227027 5.890625 29.1171875 C1.63306941 33.48981216 -3.50879225 35.78620424 -9.546875 36.5546875 C-15.40564295 35.83518968 -20.05610038 33.65098832 -23.984375 29.1796875 C-27.81963537 23.65240049 -29.20366333 18.81691196 -28.109375 12.1171875 C-25.92437658 6.98876145 -22.75821436 3.21641374 -18.109375 0.1171875 C-17.51125 -0.2953125 -16.913125 -0.7078125 -16.296875 -1.1328125 C-10.80727894 -3.01495972 -5.25217521 -2.17117479 0 0 Z " fill="#8AC13E" transform="translate(198.109375,384.8828125)"/>
<path d="M0 0 C3.96 -0.0825 7.92 -0.165 12 -0.25 C13.84851563 -0.30462402 13.84851563 -0.30462402 15.734375 -0.36035156 C22.66770158 -0.42995426 27.12963278 0.23500981 33 4 C36.56444501 7.65355613 37.26945797 10.54612105 37.4375 15.5 C37.25353875 20.01931479 36.66613944 23.23063045 34 27 C29.42296897 31.13049141 26.99917145 32.12616435 20.8984375 32.09765625 C19.80708496 32.09515869 18.71573242 32.09266113 17.59130859 32.09008789 C16.19992676 32.08098389 14.80854492 32.07187988 13.375 32.0625 C8.96125 32.041875 4.5475 32.02125 0 32 C0 21.44 0 10.88 0 0 Z " fill="#FBFDFC" transform="translate(245,402)"/>
<path d="M0 0 C3.40920514 2.411389 5.69634878 5.08019755 7.5625 8.8125 C7.93631854 14.41977817 7.74740827 17.98022538 4.5625 22.8125 C-0.84508863 27.692519 -4.29588467 28.17155042 -11.453125 28.0859375 C-15.51503773 27.71377272 -17.52210596 26.65500919 -20.4375 23.8125 C-23.08003721 20.45531436 -24.30774542 17.60544466 -25 13.375 C-24.10534989 7.70888261 -21.4596701 3.71571892 -17.3125 -0.1875 C-11.58558468 -2.17947055 -5.69687855 -1.96801259 0 0 Z " fill="#8CC23F" transform="translate(444.4375,210.1875)"/>
<path d="M0 0 C0.33 0 0.66 0 1 0 C-0.02740363 14.12679987 -4.28458936 27.72341349 -9 41 C-10.32 40.34 -11.64 39.68 -13 39 C-10.63385692 31.81381544 -8.14194863 24.67644735 -5.60546875 17.54882812 C-3.55902094 11.74755428 -1.71756221 5.9068726 0 0 Z " fill="#8DC44C" transform="translate(598,405)"/>
<path d="M0 0 C1.32 0.33 2.64 0.66 4 1 C3.39124245 5.60416626 2.15277044 9.56483324 0.4375 13.875 C-0.01753906 15.02742188 -0.47257813 16.17984375 -0.94140625 17.3671875 C-1.29074219 18.23601562 -1.64007812 19.10484375 -2 20 C-2.66 19.67 -3.32 19.34 -4 19 C-4.61875 19.495 -5.2375 19.99 -5.875 20.5 C-8 22 -8 22 -10 22 C-8.20248446 17.27915654 -6.03862628 12.74793489 -3.875 8.1875 C-3.50246094 7.39923828 -3.12992188 6.61097656 -2.74609375 5.79882812 C-1.83204476 3.86526295 -0.91620158 1.93254612 0 0 Z " fill="#8BC345" transform="translate(584,444)"/>
<path d="M0 0 C0.33 0 0.66 0 1 0 C0.35343144 8.89031769 -1.87022567 17.37193748 -4 26 C-4.99 25.34 -5.98 24.68 -7 24 C-6.82984375 23.44054687 -6.6596875 22.88109375 -6.484375 22.3046875 C-4.24392676 14.89214065 -2.11457447 7.44931312 0 0 Z " fill="#A0D170" transform="translate(598,405)"/>
<path d="M0 0 C0.66 0.66 1.32 1.32 2 2 C0.71416016 2.09474609 0.71416016 2.09474609 -0.59765625 2.19140625 C-7.83882885 2.96695461 -12.15219809 3.87548926 -16.92578125 9.5390625 C-17.28027344 10.02117187 -17.63476562 10.50328125 -18 11 C-18.33 10.01 -18.66 9.02 -19 8 C-17.92130607 7.03644756 -16.83681257 6.07938583 -15.75 5.125 C-14.84507812 4.32449219 -14.84507812 4.32449219 -13.921875 3.5078125 C-9.22195689 -0.17952163 -5.84204491 -0.37690612 0 0 Z " fill="#91C74A" transform="translate(192,383)"/>
<path d="M0 0 C0.66 0 1.32 0 2 0 C1.609375 6.0546875 1.609375 6.0546875 1 8 C-0.98 8.99 -0.98 8.99 -3 10 C-2.01 6.7 -1.02 3.4 0 0 Z " fill="#3A476B" transform="translate(201,266)"/>
<path d="M0 0 C0.66 1.32 1.32 2.64 2 4 C0.33333333 5.66666667 -1.33333333 7.33333333 -3 9 C-2.01 6.03 -1.02 3.06 0 0 Z " fill="#C4C7D0" transform="translate(224,263)"/>
</svg>
